<svg xmlns="http://www.w3.org/2000/svg" xmlns:xlink="http://www.w3.org/1999/xlink" viewBox="0 0 12.34 9.13"><defs><style>.cls-1{fill:#767676;}.cls-1,.cls-10,.cls-11,.cls-12,.cls-13,.cls-14,.cls-15,.cls-16,.cls-17,.cls-18,.cls-19,.cls-2,.cls-20,.cls-21,.cls-22,.cls-23,.cls-24,.cls-25,.cls-26,.cls-27,.cls-28,.cls-29,.cls-3,.cls-30,.cls-31,.cls-32,.cls-33,.cls-34,.cls-35,.cls-36,.cls-37,.cls-38,.cls-39,.cls-4,.cls-40,.cls-41,.cls-42,.cls-43,.cls-44,.cls-45,.cls-46,.cls-47,.cls-48,.cls-49,.cls-5,.cls-50,.cls-51,.cls-52,.cls-53,.cls-54,.cls-55,.cls-56,.cls-57,.cls-58,.cls-59,.cls-6,.cls-60,.cls-61,.cls-62,.cls-63,.cls-64,.cls-65,.cls-66,.cls-67,.cls-68,.cls-69,.cls-7,.cls-70,.cls-71,.cls-72,.cls-73,.cls-74,.cls-8,.cls-9{fill-rule:evenodd;}.cls-2{fill:#8f8f8f;}.cls-3{fill:#7f7f7f;}.cls-4{fill:#a3a3a3;}.cls-5{fill:#818181;}.cls-6{fill:#6b6b6b;}.cls-7{fill:#ccc;}.cls-8{fill:#d4d4d4;}.cls-9{fill:#999;}.cls-10{fill:#5c5c5c;}.cls-11{fill:#777;}.cls-12{fill:#909090;}.cls-13{fill:#797979;}.cls-14{fill:#a4a4a4;}.cls-15{fill:#bebebe;}.cls-16{fill:#9b9b9b;}.cls-17{fill:#c4c4c4;}.cls-18{fill:#989898;}.cls-19{fill:#838383;}.cls-20{fill:#707070;}.cls-21{fill:#c1c1c1;}.cls-22{fill:#b6b6b6;}.cls-23{fill:#acacac;}.cls-24{fill:#7e7e7e;}.cls-25{fill:#a1a1a1;}.cls-26{fill:#363636;}.cls-27{fill:#505050;}.cls-28{fill:#595959;}.cls-29{fill:#919191;}.cls-30{fill:#b0b0b0;}.cls-31{fill:#696969;}.cls-32{fill:#6c6c6c;}.cls-33{fill:#858585;}.cls-34{fill:#8a8a8a;}.cls-35{fill:#636363;}.cls-36{fill:#828282;}.cls-37{fill:#888;}.cls-38{fill:#8d8d8d;}.cls-39{fill:#b1b1b1;}.cls-40{fill:#afafaf;}.cls-41{fill:#c3c3c3;}.cls-42{fill:#535353;}.cls-43{fill:#7b7b7b;}.cls-44{fill:#cdcdcd;}.cls-45{fill:#4d4d4d;}.cls-46{fill:#5b5b5b;}.cls-47{fill:#d8d8d8;}.cls-48{fill:#c5c5c5;}.cls-49{fill:#bdbdbd;}.cls-50{fill:#434343;}.cls-51{fill:#7a7a7a;}.cls-52{fill:#848484;}.cls-53{fill:#929292;}.cls-54{fill:#323232;}.cls-55{fill:#9f9f9f;}.cls-56{fill:#7c7c7c;}.cls-57{fill:#878787;}.cls-58{fill:#898989;}.cls-59{fill:#a8a8a8;}.cls-60{fill:#a7a7a7;}.cls-61{fill:#c2c2c2;}.cls-62{fill:#474747;}.cls-63{fill:#787878;}.cls-64{fill:#404040;}.cls-65{fill:#949494;}.cls-66{fill:#b5b5b5;}.cls-67{fill:#626262;}.cls-68{fill:#666;}.cls-69{fill:#3d3d3d;}.cls-70{fill:#6f6f6f;}.cls-71{fill:#555;}.cls-72{fill:#aaa;}.cls-73{fill:#545454;}.cls-74{fill:#6e6e6e;}</style><symbol id="hand_hold" data-name="hand hold" viewBox="0 0 18.62 13.78"><path class="cls-1" d="M5.7,5.18A13.2,13.2,0,0,0,3.35,5.1C2.65,5,2,5.05,1.69,4.33c-.24-.3.07-.84-.43-1C1,3.39.7,3.52.42,3.6a23.54,23.54,0,0,1,0,3.66l.1,0A.66.66,0,0,0,1.19,7c.43-.72.7-.74,1.13-.2l.11.11a.4.4,0,0,0,.44.17L3.11,7c.62-.18,1.17-.53,1.83-.67.35-.08,1-.15,1-.84A1.11,1.11,0,0,0,5.7,5.18Z"/><path class="cls-2" d="M8.33.14a2,2,0,0,1,1.43,0C9,.49,8.57,1.29,7.87,1.75c-1,.33-.47,1.18-.57,1.77s.55.39.86.57c.15.09.35,0,.53,0,.65,0,1.14.2,1.24.93-.16.27-.49.19-.71.34s-.33-.27-.57-.26l-.37-.07a8.24,8.24,0,0,0-1-.24A2.63,2.63,0,0,1,5,2.1a1.83,1.83,0,0,1,.08-.25c0-.13.11-.28.21-.32C6,1.27,6.66.94,7.36.67A3,3,0,0,0,8.33.14Z"/><path class="cls-3" d="M1.41,4.54a3.49,3.49,0,0,1-.15-1.25c1.23-.5,2.19-1.51,3.51-1.86a7.31,7.31,0,0,1,1.52-.36c-.19.38-.67.52-.79,1h0c-.15.59-.1,1.29-.82,1.6-.09,0-.18.15-.27.12-.57-.2-1,.24-1.54.28a.29.29,0,0,0-.21.09C2.25,4.28,2,4.92,1.41,4.54Z"/><path class="cls-4" d="M7.55,1.4C8.4,1.17,8.73.05,9.76.13L12,.62c.2.17.3.42,0,.51-.91.27-1,1.17-1.54,1.78a.86.86,0,0,1-.2.18c-.24.15-.51.05-.76.11a.3.3,0,0,1-.22-.12A6.22,6.22,0,0,1,9,2.4c0-.36.41-.47.5-.87-.39.12-.59.43-.89.58a1,1,0,0,0-.17,1.26c.1.3.19.66-.3.75C7.47,4,7.21,3.7,7.28,3A14.74,14.74,0,0,0,7.55,1.4Z"/><path class="cls-5" d="M0,8.85a1,1,0,0,0,0,.49,2,2,0,0,1,.49.22V8.08A2.63,2.63,0,0,1,0,8.85Z"/><path class="cls-5" d="M4.15,7.67a3,3,0,0,0,0-.79.43.43,0,0,0-.28-.26,1.25,1.25,0,0,0-.51,0,.21.21,0,0,0-.19.13c-.17.34-.6.52-.43,1.08.11.36-.5.29-.73.53s-.31-.12-.38-.27a2.2,2.2,0,0,0-.28-.44c-.14-.08-.22,0-.35,0a.84.84,0,0,0-.46.4V9.56a2.21,2.21,0,0,1,.67.66.82.82,0,0,0,1.16.31H2.5c.23.28.54.49.84.21a.55.55,0,0,0-.06-.87c-.34-.26-.11-.52,0-.66C3.7,8.75,3.8,8.14,4.15,7.67Z"/><path class="cls-6" d="M3.93,7.69V6.9c0-.17.16-.21.32-.19a.89.89,0,0,1,.26,1c-.68,1.41-.06,2.57.62,3.75.29.5.79.88.91,1.48-.19.16,0,.58-.36.59s-.4-.32-.58-.51-.3-.62-.7-.65c-.6-.33-1.2-.65-1.79-1,0,0-.06-.08-.09-.12.1-.28.37-.33.6-.44.48-.22.57-.66.15-1a.5.5,0,0,1-.13-.8C3.43,8.63,3.38,8,3.93,7.69Z"/><path class="cls-7" d="M15.56,4.26c.71.54,1.59.76,2.34,1.24a1.21,1.21,0,0,1,.53,1.75c-.19.06-.39.19-.56,0-.37-.61-1.05-.66-1.61-.91a2.81,2.81,0,0,0-.53-.7c-.26-.19-.59-.28-.76-.59s-.68-.33-.68-.79A.63.63,0,0,1,15,3.85C15.28,3.87,15.4,4.09,15.56,4.26Z"/><path class="cls-8" d="M15.34,8.13a2.24,2.24,0,0,1,0,1.12c-.14.12-.29.24-.44,0s-.41-.3-.72-.33c-1.06-.07-1.56-.82-1.9-1.72-.14-1,.13-1.24,1.07-1.09a3.91,3.91,0,0,0,.6.4,9.52,9.52,0,0,1,1.26,1C15.38,7.73,15.32,7.94,15.34,8.13Z"/><path class="cls-1" d="M8.19,13.69a1.7,1.7,0,0,1-1.58-.34c-.09-.27-.37-.44-.38-.75.2-.48-.09-.81-.38-1.13.08-.58-.43-.94-.57-1.44a.55.55,0,0,1,.07-.28c.35-.5.7-.28,1,0,.38.45,1,.51,1.45.76a.47.47,0,0,1,0,.52,2.69,2.69,0,0,0,.33,2.32A.53.53,0,0,0,8.19,13.69Z"/><path class="cls-9" d="M9.44,11.61a1.1,1.1,0,0,1,.09.14c.18.39,1,.35.86.58A2.55,2.55,0,0,1,9,13.41a3.41,3.41,0,0,1-.54.1C8,13,7.57,12.44,8,11.66a.37.37,0,0,1,.22-.15c.42,0,.27-.57.58-.71a.67.67,0,0,1,.28,0C9.4,11,9.68,11.17,9.44,11.61Z"/><path class="cls-10" d="M.91,7.65c.11-.06,0-.23-.06-.34a.56.56,0,0,0-.24-.24H.52V8.19A.8.8,0,0,1,.91,7.65Z"/><path class="cls-10" d="M1.39,10.33c0-.53-.53-.63-.87-.88v1.68c.23.27.42.61.89.49C1.15,11.19,1.5,10.76,1.39,10.33Z"/><path class="cls-11" d="M13.86,6.86l-.48-.28a1.37,1.37,0,0,1-.17-.17c.18-.49-.39-.74-.39-1.17,0-.13,0-.25,0-.38s.21-.46.54-.29a2.92,2.92,0,0,0,1.88,1.29s.13,0,.14,0A6.67,6.67,0,0,0,17.52,8c.09.07,0,.19-.05.29l-.64-.15c-.52.21-.82-.36-1.27-.38a4.52,4.52,0,0,1-1.06-.89C14.27,6.67,14.09,6.58,13.86,6.86Z"/><path class="cls-12" d="M12.75.79a5,5,0,0,1,2.35.45c.34.13.74.18.79.66s-.46.78-.76,1.12c-.41.08-.62-.19-.8-.47A1.67,1.67,0,0,0,13,1.77a5,5,0,0,1-.53-.23C12.12,1.13,12.54,1,12.75.79Z"/><path class="cls-13" d="M3.93,7.69c-.16.33-.31.65-.46,1a1,1,0,0,0,.07,1.16c.27.36.58.78.25,1.27s-.82.31-1.27.2a1.55,1.55,0,0,1,0-.77c.38-.07.83-.1.33-.64a.3.3,0,0,1-.08-.35C3.15,8.93,3.15,8.06,3.93,7.69Z"/><path class="cls-14" d="M17.47,8.31c-1.29-.81-2.15-2.17-3.58-2.81a1.08,1.08,0,0,1-.54-.64c-.14-.24-.29-.48,0-.73a.34.34,0,0,1,.58.15c.06.69.54.68,1,.75a2.22,2.22,0,0,0,.47.39,1.38,1.38,0,0,1,.69.57,1.72,1.72,0,0,1,.07.21,14.17,14.17,0,0,1,1.55,1.64c.1.16.23.29.06.47Z"/><path class="cls-4" d="M12.64,10.62a2.31,2.31,0,0,1-.69,1,1.32,1.32,0,0,1-1.49-1.27,2,2,0,0,0,.31-.73.54.54,0,0,1,.13-.22A1.36,1.36,0,0,1,11.76,9l.24,0c.35.23,1,.21.7.94,0,.18-.33.25-.17.49A.76.76,0,0,1,12.64,10.62Z"/><path class="cls-15" d="M18.09,6.9c.11.12.22.24.34.35.24.54,0,.88-.5,1.05-.17-.37-.52-.53-.83-.76a7.3,7.3,0,0,1-1.21-1.27h0a2.2,2.2,0,0,1-.17-.67c-.05-.23.08-.34.32-.27l.32.78A4.26,4.26,0,0,0,18.09,6.9Z"/><path class="cls-16" d="M12.75.79c.13.09.45.09.38.26s-.36.24-.55.35c0,0,0,.08,0,.13a1.43,1.43,0,0,0-1.24,1,.73.73,0,0,1-1,.51.21.21,0,0,1-.13-.21A5.42,5.42,0,0,1,12,.62Z"/><path class="cls-17" d="M12.6,7.21a8.86,8.86,0,0,1,.9.94.87.87,0,0,0,.75.43,1.24,1.24,0,0,1,1.13.67,1.42,1.42,0,0,1-.46.78.59.59,0,0,1-.3.16,2.81,2.81,0,0,0-1.06-.84.83.83,0,0,1-.51-.62c0-.52-.52-.72-.7-1.12a.75.75,0,0,1,0-.33A.27.27,0,0,1,12.6,7.21Z"/><path class="cls-4" d="M17.61,3.12a3.93,3.93,0,0,1-1.71.65c-.75-.07-1-.44-.52-1a1.33,1.33,0,0,0,.39-.92.41.41,0,0,1,.46-.44.33.33,0,0,1,.35.46c-.24.73.1,1,.76,1A.27.27,0,0,1,17.61,3.12Z"/><path class="cls-13" d="M10.67,10.38c.6.23.73.95,1.28,1.23a.69.69,0,0,1-1.12,0c-.24-.23-.51-.42-.76-.63s-.42-.25-.34-.55.29-.5.64-.46S10.7,10.15,10.67,10.38Z"/><path class="cls-18" d="M16.35,1.55c-.52.38-.58,1-.81,1.53-.12.31.12.52.36.69l-.33.17c-.33.22-.5,0-.68-.24a1.43,1.43,0,0,1,0-.41.56.56,0,0,1,.22-.48c.5-.52.68-1,0-1.57l1.89,0a.21.21,0,0,1,0,.32A.89.89,0,0,1,16.35,1.55Z"/><path class="cls-19" d="M5.5,2a1.35,1.35,0,0,1,.79-1c.56-.58,1.37-.6,2-.93C8,.9,7.07.82,6.53,1.32A6.27,6.27,0,0,1,5.5,2Z"/><path class="cls-20" d="M1.37,9.87a1.06,1.06,0,0,0-1-.62c-.09.71.64.73.93,1.12a.68.68,0,0,0,.33.71A.32.32,0,0,0,2,10.84l.31-.31A1.32,1.32,0,0,1,1.37,9.87Z"/><path class="cls-21" d="M17.89,1.56c.57.28.37.68.17,1.08-.57.26-.88-.23-1.23-.48-.19-.14-.12-.49.13-.67S17.61,1.16,17.89,1.56Z"/><path class="cls-6" d="M6.6,12.57c.21.1.47.18.47.45s-.29.24-.46.33H6.13c-.39,0-.44-.32-.55-.59,0-.12,0-.25,0-.37A.42.42,0,0,1,6,11.94c.28-.08.32.15.41.35A.73.73,0,0,0,6.6,12.57Z"/><path class="cls-22" d="M17.89,1.56c-.28-.09-.6-.19-.74.16s.2.42.4.56.34.24.51.36L17.77,3c-1,.09-1.41-.37-1.29-1.24,0-.28.24-.22.35-.33L17,1.26C17.32,1.26,17.69,1.17,17.89,1.56Z"/><path class="cls-20" d="M12.58,10.05c0-.44-.38-.56-.63-.79s-.35-.39-.07-.64.63.1.92.26a.48.48,0,0,1,.14.2c.17.48.62.56,1,.74a2.22,2.22,0,0,1,.84.42,1.12,1.12,0,0,1-1.23,0c-.5-.22-.78-.07-.92.42l-.09.07C12.25,10.46,12.35,10.25,12.58,10.05Z"/><path class="cls-23" d="M16.83,1.4c-.28.85-.08,1.17.94,1.57l-.16.15C16.32,3,16.07,2.7,16.35,1.55Z"/><path class="cls-24" d="M5.68,12.9l.45.45c-.52.46-.91.18-1.26-.23a4.85,4.85,0,0,1-.47-.71c.8-.25.78.52,1.1.87,0,0,.06,0,.07,0l.09-.11C5.57,13.08,5.55,13,5.68,12.9Z"/><path class="cls-25" d="M14.79,10.24a3.13,3.13,0,0,1-2.2-1c.23-.35.49-.48.84-.15s1.08.28,1.21.94h.28Z"/><path class="cls-26" d="M9.44,11.61,9,11c-.25-.15-.51-.29-.42-.65A.32.32,0,0,1,8.82,10c.67,0,.86.49,1.06,1S10.05,11.74,9.44,11.61Z"/><path class="cls-27" d="M1.25,10.37a1.21,1.21,0,0,0,.79.47c.14.54-.33.6-.63.78C.8,11.27,1.08,10.81,1.25,10.37Z"/><path class="cls-28" d="M15.57,7.53a4.51,4.51,0,0,1,1.26.63c-.51.47-1,0-1.49,0l-.28-.42C15.12,7.34,15.44,7.71,15.57,7.53Z"/><path class="cls-29" d="M8.17,11.78c-.14.62.22,1.15.32,1.73l-.3.18-.33,0c-.13-.44,0-.93-.37-1.34-.16-.18.08-.62.41-.79C8,11.57,8.16,11.61,8.17,11.78Z"/><path class="cls-30" d="M15.89,6.27c.64.72,1.63,1.08,2,2h-.16C17.15,7.62,16.29,7.15,15.89,6.27Z"/><path class="cls-31" d="M9.88,11,9,10.2c-.2-.07-.39-.14-.29-.42.57-.47.79.17,1.14.37a.32.32,0,0,1,.08.38c.06.15.11.31.17.46Z"/><path class="cls-32" d="M15.1,3.59l.47.35v.32l-.49-.17c-.24-.2-.47,0-.71,0s-.48.14-.67-.11a.34.34,0,0,1,0-.28c.23-.33.61-.24.93-.33A.53.53,0,0,1,15.1,3.59Z"/><path class="cls-33" d="M2.51,3.76c0-.45.31-.43.67-.4A1.88,1.88,0,0,0,5.5,2,2.26,2.26,0,0,0,7.55,4.54c.19.28,0,.33-.21.45-.56.38-1.27.17-1.84.49-1.22.58-2.36-.29-3.56-.21-.39,0-.53-.35-.53-.73l1.1-.63A1,1,0,0,1,2.75,4a0,0,0,0,1,.06,0C2.67,4,2.61,3.83,2.51,3.76Z"/><path class="cls-34" d="M3.3,6.9c.1.94-.63,1.49-1.07,2.15-.25.36-.74.18-.89-.29a4.53,4.53,0,0,1-.09-.91c-.07-.1-.15-.2-.1-.33A3.11,3.11,0,0,0,1.5,7a.7.7,0,0,1,1-.4l.32.16C2.85,7.21,3.17,6.78,3.3,6.9Z"/><path class="cls-35" d="M3.76,6.75H3.29c-.11.1-.21.11-.3,0a3,3,0,0,1,1.43-.57,4,4,0,0,0,1.4-.67l.06-.13a8.48,8.48,0,0,0,1.4-.46.88.88,0,0,1,1.27.41,1.21,1.21,0,0,1-.31.86.87.87,0,0,1-1.07.38A2.84,2.84,0,0,0,6,6.61a1.77,1.77,0,0,0-.46-.07A4.39,4.39,0,0,1,3.76,6.75Z"/><path class="cls-36" d="M2.51,6.58c-.5.24-.61.86-1.1,1.11-.13-.22-.3-.12-.46-.05s-.38,0-.35-.27v-.3c.26-.16.34-.45.5-.68A1.39,1.39,0,0,1,3,6.05C3,6.36,2.5,6.27,2.51,6.58Z"/><path class="cls-12" d="M3,6.73l.3,0s0,.09,0,.14-.07.14-.11.2c-.17.26-.31.55-.68.55a.27.27,0,0,1-.29-.29c0-.38.33-.48.61-.62Z"/><path class="cls-24" d="M5.5,5.48C6,4.73,6.94,5,7.55,4.54l.79.32a15.48,15.48,0,0,0-2.52.63H5.5Z"/><path class="cls-16" d="M7.55,1.4c.31.44,0,.89,0,1.34s0,1,.6,1.17c.19-.11.36-.14.47.1s-.06.27-.16.37C7,4.08,6.58,3.27,7.27,1.87A5.3,5.3,0,0,1,7.55,1.4Z"/><path class="cls-25" d="M8.49,4.38V4.07c0-.3.26-.31.46-.38a4.94,4.94,0,0,0,1.53.18,3.82,3.82,0,0,1,.36.13c.26.14.56.24.55.64a.64.64,0,0,1-.55.62l-.24.07c-.25-.18-.71.19-.85-.32A1.4,1.4,0,0,0,8.49,4.38Z"/><path class="cls-24" d="M8.64,4.87h.48c.35.37,1.16.36,1,1.17-.16.28-.47.3-.73.38-.4-.13-.81-.23-1-.69C8.56,5.45,8.35,5.09,8.64,4.87Z"/><path class="cls-37" d="M9.91,5.81l-.79-.95L9.75,5c.25-.11.45-.47.79-.17a1,1,0,0,1-.17,1C10.19,6,10,6,9.91,5.81Z"/><path class="cls-1" d="M8.64,4.87v.8c-.22.13-.34.1-.31-.18a.74.74,0,0,0-1.11-.3,2.86,2.86,0,0,1-1.4.3,5,5,0,0,1,2.52-.63Z"/><path class="cls-38" d="M2.51,3.76l.38-.06c.28,0,.6-.07.71.27s-.21.46-.46.57c-.46.38-.47-.11-.63-.32V3.76Z"/><path class="cls-39" d="M8.33,1.71c.42-.12.5-.57.82-.8.51-.38.72-.28.9.33s0,1.11-.78,1.11c-.17.17-.34,0-.5,0s-.48,0-.53-.29C8.26,1.92,8.24,1.8,8.33,1.71Z"/><path class="cls-40" d="M8.33,1.71V2a5.48,5.48,0,0,0,.84,1.56c0,.16-.12.22-.21.32l-.47.16-.31-.16C8,3.16,7.72,2.4,8.33,1.71Z"/><path class="cls-41" d="M9,3.6A1.68,1.68,0,0,1,8.33,2,.81.81,0,0,1,9,2c-.11.45.15.71.47.94h.15a.34.34,0,0,1,.41.31C9.81,3.92,9.42,3.86,9,3.6Z"/><path class="cls-42" d="M9.73,3.29,9.58,3c.13-.14.26-.28.49-.16a2.79,2.79,0,0,0,.78.32l.59.2c.51.17.51.45.16.79a1.89,1.89,0,0,1-.53,0,3.21,3.21,0,0,1-.75-.21C9.85,4,9.67,3.74,9.73,3.29Z"/><path class="cls-43" d="M10.54,3.28l-.47-.47h.15l.16,0a.78.78,0,0,0,.36.13c.43-.36,1.14-.15,1.48-.77.15-.27.44-.07.57.19a1.62,1.62,0,0,1-.12.92.55.55,0,0,1-.78.35C11.45,3.46,11,3.44,10.54,3.28Z"/><path class="cls-44" d="M9.43,3C8.72,2.94,8.61,2.6,9,2l.31.32C9.33,2.55,9.38,2.76,9.43,3Z"/><path class="cls-43" d="M.23,8.15a.73.73,0,0,0-.05.2l0-.08A.5.5,0,0,1,.23,8.15Z"/><path class="cls-43" d="M.6,7.37a4.63,4.63,0,0,1-.37.78.5.5,0,0,0,0,.12l0,.08a.66.66,0,0,0,.13.44c.25-.06.53-.07.52-.44s.22-.39.42-.5l.16-.16C1.49,6.7.87,7.48.6,7.37Z"/><path class="cls-45" d="M3.76,6.75a6.18,6.18,0,0,1,1.9-.48c.29.3.06.51-.16.67a1.89,1.89,0,0,1-.72.44c-.28,0-.36-.31-.55-.47h-.3Z"/><path class="cls-46" d="M4.23,6.91l.64.15A1.29,1.29,0,0,1,6,6.92a.37.37,0,0,1,0,.55c-.35.25-.31.58-.31.92s-.19.35-.35.48-.84.11-.56.71a1.59,1.59,0,0,0,1,1.5.32.32,0,0,0,.4.22,2.41,2.41,0,0,1,.45,1.27c-.43-.25-.83-.38-.92.33l0,.29a8.59,8.59,0,0,0-1.23-2.34,3.66,3.66,0,0,1-.32-3A7.16,7.16,0,0,0,4.23,6.91Z"/><path class="cls-47" d="M15.23,5.78l-.43-.14c-.22-.35-.55-.62-.77-1a.38.38,0,0,1,0-.44c.12-.18.31-.18.46,0l.76.48c.27.17.52.32.48.73S15.39,5.66,15.23,5.78Z"/><path class="cls-39" d="M14.47,4.22c-.51.62.33.92.33,1.42a3.07,3.07,0,0,1-1.28-1.41c-.18.07-.25,0-.27-.19.14-.26.35-.25.59-.15a2,2,0,0,1,1.23.2Z"/><path class="cls-48" d="M18.09,6.9c-.86.36-1.24-.33-1.73-.79A4.14,4.14,0,0,1,18.09,6.9Z"/><path class="cls-30" d="M15.23,5.78c.4-.36.27-.72,0-1.08a1.38,1.38,0,0,1,.81.63,2.32,2.32,0,0,0-.15.94A1.25,1.25,0,0,0,15.23,5.78Z"/><path class="cls-49" d="M13.36,6.43c0,.05,0,.1,0,.15-.62-.23-.81.07-.78.63l0,0a.65.65,0,0,1-.82.38c-.36-.13-.34-.49-.34-.82,0-1,.31-1.38,1.13-1.32a1.32,1.32,0,0,0,.41.37C13.26,5.91,13.31,6.18,13.36,6.43Z"/><path class="cls-50" d="M15.57,7.53a.61.61,0,0,1-.51.18c-.44-.23-.71-.7-1.2-.85,0-.61.28-.53.6-.28S15.2,7.21,15.57,7.53Z"/><path class="cls-51" d="M5,8.79l0-.6a.37.37,0,0,1,.61.2c0,.33.22.26.39.3.42,0,.77.36,1.21.22A1.26,1.26,0,0,1,8.09,10a.6.6,0,0,1-.08.21.77.77,0,0,1-1,0,1.34,1.34,0,0,0-.78-.17,1.21,1.21,0,0,0-.81-.15c-.32.17-.4-.15-.57-.28C4.65,9.3,4.59,9,5,8.79Z"/><path class="cls-52" d="M7.86,11.78c-.4.63.3,1.26,0,1.89a9.07,9.07,0,0,1-.63-2.16c-.08-.43.19-.63.47-.83a.69.69,0,0,1,.16-.6l0-.07c.54-.44.66.11.9.38L9,11H8.82a.35.35,0,0,0-.3.27C8.25,11.38,7.75,11.22,7.86,11.78Z"/><path class="cls-53" d="M7.86,10.08a.48.48,0,0,1-.16.6,1.47,1.47,0,0,1-1.42-.63C6.82,9.1,7.33,9.92,7.86,10.08Z"/><path class="cls-50" d="M5.2,9.56l.27.34v.17c-.08.36.19.62.28.93a.91.91,0,0,1-.1.95A7.92,7.92,0,0,1,4.24,9.58C4.55,9.12,4.88,9.36,5.2,9.56Z"/><path class="cls-54" d="M5.65,12c0-.63-.61-1.21-.18-1.88a2.87,2.87,0,0,1,.68,1.23C6,11.56,6,11.87,5.65,12Z"/><path class="cls-55" d="M7.86,11.78c-.54-.81.21-.77.63-.95.21.36,0,.64-.15.95H7.86Z"/><path class="cls-40" d="M8.34,11.78a1,1,0,0,1,.15-.95l.33.15A.89.89,0,0,1,8.34,11.78Z"/><path class="cls-56" d="M12.9,6.1l-.31-.17c-.3-.27-.82-.14-1-.58a2.11,2.11,0,0,1,.89-1,.41.41,0,0,1,.22,0c.24.16.11.52.38.65v.32C12.94,5.57,13.59,6,12.9,6.1Z"/><path class="cls-57" d="M13.05,5c-.38.09-.56,0-.47-.45a.78.78,0,0,1,.31-.67c.25-.26.45-.19.49.19l.14.15c-.06.21-.11.42-.17.63Z"/><path class="cls-58" d="M12.9,6.1l.15-.77c.23.33.69.6.31,1.1Z"/><path class="cls-43" d="M12.57,2.34c-.6.46-1.18,1-2,.63a1.19,1.19,0,0,0,.92-.79c.18-.51.7-.58,1.12-.78h0l.47.15a7.26,7.26,0,0,1,2,1.74c0,.1,0,.2,0,.3h-.48l-.11,0a18.46,18.46,0,0,0-1.64-1.14A.46.46,0,0,0,12.57,2.34Z"/><path class="cls-33" d="M15.09,3.29a6.68,6.68,0,0,1-2-1.74,1.89,1.89,0,0,1,1.5.84,1.17,1.17,0,0,0,.54.42Z"/><path class="cls-59" d="M10.67,10.38l-.3-.16c-.17-.34-.55-.16-.8-.3s-.36-.24-.47-.44c.07-.7.72-.74,1.17-1,.62.18.72.67.73,1.22A1,1,0,0,1,10.67,10.38Z"/><path class="cls-17" d="M11,9.71l-.64-.9a.71.71,0,0,1-.86,0,1.25,1.25,0,0,1-.33-.49c-.09-.3-.1-.63.44-.56a8.66,8.66,0,0,1,.89.12.64.64,0,0,1,.38.2c.49.45.63.93.13,1.47A.57.57,0,0,0,11,9.71Z"/><path class="cls-21" d="M12.58,10.05l0,.64c-.26.07-.52.28-.77,0a.31.31,0,0,1,0-.28C11.89,10,12.25,10.07,12.58,10.05Z"/><path class="cls-35" d="M10.7,8.3l-.16-.14c-.23-.17-.66-.09-.65-.54a.69.69,0,0,1,.42-.29c.24,0,.39.1.54.25a1.38,1.38,0,0,0,.48.35c.21.29.73.34.63.85,0,.16,0,.32,0,.48H11.8C11.28,9.12,11.13,8.55,10.7,8.3Z"/><path class="cls-59" d="M10.7,8.3a2.76,2.76,0,0,1,1.1,1L11,9.58A1.51,1.51,0,0,0,10.7,8.3Z"/><path class="cls-2" d="M12.58,1.4a7.8,7.8,0,0,0-1,1.1A1.17,1.17,0,0,1,10.54,3l-.16-.15a1,1,0,0,0,.7-.57A1.37,1.37,0,0,1,12.58,1.4Z"/><path class="cls-60" d="M11.79,5.34l.8.59c-.27.08-.64-.12-.81.28a1,1,0,0,0,0,.82c.19.37.52.24.82.2l0,.3a1.6,1.6,0,0,1,0,1.16.25.25,0,0,1-.23.09A2.27,2.27,0,0,1,11,6.2a1.68,1.68,0,0,1,.32-1.52c.21-.2.33-.21.49,0S11.72,5.12,11.79,5.34Z"/><path class="cls-30" d="M14.64,10a2.83,2.83,0,0,0-2.05-.79h0a.78.78,0,0,1-.18-.62h0c.32-.42.62-.35.92,0a1.11,1.11,0,0,0,.86.62C14.68,9.35,14.85,9.6,14.64,10Z"/><path class="cls-61" d="M13.36,8.64h-.92a1.14,1.14,0,0,1,.14-1.1A1.65,1.65,0,0,1,13.36,8.64Z"/><path class="cls-58" d="M9.75,9.74c.37-.06.7-.06.62.48l-.47.31-.15-.16A.39.39,0,0,1,9.75,9.74Z"/><path class="cls-29" d="M12.4,8.64l.18.62L12,8.78l-.79-.62c-.81-.82-.56-1.72-.19-2.63.28.1.52.23.35.59A2.29,2.29,0,0,0,12.4,8.64Z"/><path class="cls-50" d="M8.78,10.39,7.88,10c-.16-.29-.29-.62-.64-.75a3.37,3.37,0,0,1-.91-.63.63.63,0,0,1,0-.74c.52-.24.87.15,1.27.35A3.79,3.79,0,0,0,8.8,9.55c.07.12,0,.24,0,.36A2.9,2.9,0,0,1,9,10.2Z"/><path class="cls-3" d="M8.78,9.91l-.15-.15c-.05-.25-.38-.45-.14-.75.51-.31.82-.16.93.41l.33.32v.63A2.18,2.18,0,0,0,8.78,9.91Z"/><path class="cls-62" d="M14.62,3.6l-.78.18c-.36.2-.81.05-1.17.27a.36.36,0,0,1-.15-.21c.05-.11,0-.23,0-.35.22-1.23.21-1.23,1.2-.57.32.18.54.5.87.68Z"/><path class="cls-6" d="M12.77,3.9a2.3,2.3,0,0,1,1.07-.12v.11l-.46.19c-.38,0-.54.31-.8.48v0c-.17-.07-.35-.14-.36-.37S12.52,3.84,12.77,3.9Z"/><path class="cls-3" d="M2.51,4.22l.63.32c-.1.17-.2.4-.45.28S2.49,4.45,2.51,4.22Z"/><path class="cls-63" d="M7.39,8.63,6.45,8a.54.54,0,0,1-.71,0c-.2-.17,0-.36.11-.55.18-.35.41-.23.64-.1a2.91,2.91,0,0,1-.82-.47A.56.56,0,0,1,6,6.28.84.84,0,0,1,7,6.1a1,1,0,0,0,1,0c.39-.29.62-.09.78.28-.63.52-.29,1.26-.41,1.89,0,.18,0,.38-.13.54C7.92,9,7.67,8.77,7.39,8.63Z"/><path class="cls-45" d="M8.66,6.41,8,6.12c-.13-.15-.37-.28-.25-.52s.36-.15.56-.11l.31.18a1.51,1.51,0,0,0,.79.46c.86.2.86.2.51.74A1,1,0,0,1,9.53,7c-.44.22-.52-.27-.78-.41A.21.21,0,0,1,8.66,6.41Z"/><path class="cls-64" d="M6,6.28c-.05.2-.1.41-.16.62,0,0,.06.07,0,.1A.09.09,0,0,1,5.8,7l-.93,0c0-.51.7-.35.79-.79Z"/><path class="cls-63" d="M11,5.64a6.89,6.89,0,0,0,.17,2.52l-.47-.32a3.32,3.32,0,0,1-.48-2.2c.11-.26.21-.53.32-.8l.13,0C10.86,5.1,11.15,5.28,11,5.64Z"/><path class="cls-65" d="M11,5.64c-.1-.26-.22-.51-.33-.77.37,0,.49-.19.2-.48a2.63,2.63,0,0,0-.51-.33c-.13-.09-.12-.18,0-.27L11,4a.83.83,0,0,0,.78.09c.37-.11.47.1.5.41-.17.2-.28.49-.62.45s-.46.26-.34.58a.64.64,0,0,1,0,.64Z"/><path class="cls-66" d="M10.36,3.79v.27A1.49,1.49,0,0,1,9,3.91V3.6l.77-.31Z"/><path class="cls-31" d="M10.22,5.64c.63.63.3,1.47.48,2.2l-.32-.31C10,7.4,9.6,7.3,9.75,6.74c0-.26-.18-.43-.32-.61l.48-.32Z"/><path class="cls-67" d="M13.84,3.14c-1.05-.35-1.05-.35-1.1.62-.41.15-.77.71-1.26.14-.15-.46-.66-.36-.94-.62l.78.06c1,.1,1.1,0,1.25-1,0-.17.13-.3.33-.32a1.79,1.79,0,0,0,.59.57C13.65,2.71,14,2.79,13.84,3.14Z"/><path class="cls-57" d="M11.48,3.9c.43.1.83-.14,1.26-.14l0,.14-.35.32c0,.18-.08.31-.3.19-.4-.08-.86,0-1.11-.46Z"/><path class="cls-68" d="M5.8,7a.59.59,0,0,1,0-.13c.55.13,1.1.35,1.62-.12a1,1,0,0,1-.91.7c-.63.07-.39.3-.08.53l.18.61c-.1.36-.55,0-.66.32-.63.15-.65-.47-.93-.75C5.12,7.69,5.52,7.4,5.8,7Z"/><path class="cls-69" d="M5.2,9.56a.54.54,0,0,1-1,0c0-.23,0-.46,0-.69s0-.59.28-.66.33.36.48.56Z"/><path class="cls-70" d="M6,8.94c0-.47.32-.45.66-.32s.41.43.61.64Z"/><path class="cls-71" d="M12.12,4.41l.3-.19.15.29-.78.83a.3.3,0,0,1-.12-.44Z"/><path class="cls-32" d="M13.84,3.14c-.27-.41-.78-.62-.94-1.12A4.74,4.74,0,0,1,14.62,3.6.93.93,0,0,1,13.84,3.14Z"/><path class="cls-9" d="M8.17,8.63c0-.78-.29-1.61.49-2.22l0,0a1.19,1.19,0,0,1,.51,1.17.79.79,0,0,0,.59,1l.62.17c-.18.41-.69.31-.94.61a1.29,1.29,0,0,0-.78-.31C8.24,9.19,8.09,9,8.17,8.63Z"/><path class="cls-72" d="M9.74,8.64c-.71,0-1.15-.18-1-1a5,5,0,0,0-.08-1.15,1,1,0,0,1,.76.3c.29.26.63.49.68.92l.46.48C10.27,8.33,9.47,7.61,9.74,8.64Z"/><path class="cls-73" d="M10.08,7.68a2.14,2.14,0,0,1-.68-.92l.35,0,.63.79Z"/><path class="cls-74" d="M8.17,8.63l.47.48c0,.22,0,.43,0,.65A4.77,4.77,0,0,1,7.39,8.63Z"/></symbol></defs><g id="Layer_2" data-name="Layer 2"><g id="data"><use width="18.62" height="13.78" transform="scale(0.66)" xlink:href="#hand_hold"/></g></g></svg>